<?xml version="1.0" encoding="utf-8"?>
<!-- Generator: Adobe Illustrator 18.0.0, SVG Export Plug-In . SVG Version: 6.00 Build 0)  -->
<!DOCTYPE svg PUBLIC "-//W3C//DTD SVG 1.1//EN" "http://www.w3.org/Graphics/SVG/1.1/DTD/svg11.dtd">
<svg version="1.1" id="Calque_1" xmlns="http://www.w3.org/2000/svg" xmlns:xlink="http://www.w3.org/1999/xlink" x="0px" y="0px"
	 viewBox="257 344.5 79.6 153.9" enable-background="new 257 344.5 79.6 153.9" xml:space="preserve">
<path d="M328.6,440h-15.9v-79.6c0-8.8-7.1-15.9-15.9-15.9c-8.8,0-15.9,7.1-15.9,15.9V440H265c-3,0-5.8,1.7-7.1,4.4
	c-1.4,2.7-1.1,5.9,0.7,8.3l31.8,42.4c1.5,2,3.9,3.2,6.4,3.2c2.5,0,4.9-1.2,6.4-3.2l31.8-42.4h0c1.8-2.4,2.1-5.6,0.8-8.3
	C334.4,441.7,331.7,440,328.6,440L328.6,440z"/>
</svg>
