<?xml version="1.0" encoding="utf-8"?>
<!-- Generator: Adobe Illustrator 18.0.0, SVG Export Plug-In . SVG Version: 6.00 Build 0)  -->
<!DOCTYPE svg PUBLIC "-//W3C//DTD SVG 1.1//EN" "http://www.w3.org/Graphics/SVG/1.1/DTD/svg11.dtd">
<svg version="1.1" id="Calque_1" xmlns="http://www.w3.org/2000/svg" xmlns:xlink="http://www.w3.org/1999/xlink" x="0px" y="0px"
	 viewBox="0 177.4 595.3 487" enable-background="new 0 177.4 595.3 487" xml:space="preserve">
<path d="M460,177.4h54.1c44.8,0.1,81.1,36.4,81.2,81.2v324.7c-0.1,44.8-36.4,81.1-81.2,81.2H81.2C36.4,664.4,0.1,628.1,0,583.3
	V258.6c0.1-44.8,36.4-81.1,81.2-81.2h54.1 M162.3,177.4h270.6 M135.3,204.5H81.2c-29.9,0-54.1,24.2-54.1,54.1v324.7
	c0,29.9,24.2,54.1,54.1,54.1h432.9c29.9,0,54.1-24.2,54.1-54.1V258.6c0-29.9-24.2-54.1-54.1-54.1H460 M432.9,204.5H162.3
	 M67.6,326.2c-7.5,0-13.5-6.1-13.5-13.5c0-7.5,6.1-13.5,13.5-13.5h460c7.5,0,13.5,6.1,13.5,13.5c0,7.5-6.1,13.5-13.5,13.5H67.6z
	 M540.2,591.4c0,9.7-7.9,17.6-17.6,17.6c-9.7,0-17.6-7.9-17.6-17.6c0-9.7,7.9-17.6,17.6-17.6C532.3,573.8,540.2,581.7,540.2,591.4z"
	/>
</svg>
