<?xml version="1.0" encoding="utf-8"?>
<!-- Generator: Adobe Illustrator 18.0.0, SVG Export Plug-In . SVG Version: 6.00 Build 0)  -->
<!DOCTYPE svg PUBLIC "-//W3C//DTD SVG 1.1//EN" "http://www.w3.org/Graphics/SVG/1.1/DTD/svg11.dtd">
<svg version="1.1" id="Calque_1" xmlns="http://www.w3.org/2000/svg" xmlns:xlink="http://www.w3.org/1999/xlink" x="0px" y="0px"
	 viewBox="10.6 121.8 574 449.4" enable-background="new 10.6 121.8 574 449.4" xml:space="preserve">
<g>
	<path fill="#FFFFFF" d="M226.6,557.7c-10.6,0-20.6-4.1-28.1-11.6L35.8,383.4c-7.5-7.5-11.6-17.5-11.6-28.2
		c0-10.6,4.1-20.6,11.6-28.1L71,292c7.5-7.5,17.5-11.6,28.1-11.6c10.6,0,20.6,4.1,28.1,11.6l96.5,96.5L465.2,147
		c7.5-7.5,17.5-11.6,28.2-11.6c10.6,0,20.6,4.1,28.1,11.6l38,38c7.5,7.5,11.6,17.5,11.6,28.1c0,10.6-4.1,20.6-11.6,28.1L254.7,546.1
		C247.2,553.6,237.2,557.7,226.6,557.7z"/>
	<path d="M493.4,148.9c6.7,0,13.5,2.6,18.6,7.7l38,38c5.1,5.1,7.7,11.8,7.7,18.6c0,6.8-2.6,13.5-7.7,18.6L245.2,536.5
		c-5.1,5.1-11.8,7.7-18.6,7.7c-6.7,0-13.5-2.6-18.6-7.7L45.3,373.9v0c-5.1-5.1-7.7-11.9-7.7-18.6c0-6.7,2.6-13.5,7.7-18.6l35.2-35.2
		c5.1-5.1,11.8-7.7,18.6-7.7s13.5,2.6,18.6,7.7l96.5,96.5c2.6,2.6,6.1,4,9.6,4s6.9-1.3,9.6-4l241.4-241.4
		C479.9,151.4,486.6,148.9,493.4,148.9 M493.4,121.9c-14.3,0-27.6,5.5-37.7,15.6L223.8,369.4l-87-87c-10.1-10.1-23.5-15.6-37.7-15.6
		c-14.3,0-27.7,5.5-37.7,15.6l-35.1,35.1c-10.1,10.1-15.6,23.4-15.6,37.7c0,14.3,5.5,27.6,15.6,37.7l162.7,162.7
		c10.1,10.1,23.4,15.6,37.7,15.6c14.3,0,27.7-5.5,37.7-15.6L569,250.9c10.1-10.1,15.6-23.5,15.6-37.7c0-14.3-5.5-27.7-15.6-37.7
		l-38-38C521,127.4,507.6,121.9,493.4,121.9L493.4,121.9z"/>
</g>
</svg>
