<svg xmlns="http://www.w3.org/2000/svg" data-name="圖層 1" viewBox="0 0 300 375" x="0px" y="0px"><path d="M260,117H40a33,33,0,0,0,0,66H260a33,33,0,0,0,0-66Zm0,60H40a27,27,0,0,1,0-54H260a27,27,0,0,1,0,54Z"/><path d="M242.84,140.94a3,3,0,0,0,2.92-2.35h4.55a3,3,0,0,0,5.92-.65v-5.68a3,3,0,0,0-6,0v.33h-4.39v-.33a3,3,0,0,0-6,0v5.68A3,3,0,0,0,242.84,140.94Z"/><path d="M260.17,132.59a3,3,0,0,0,0,6,1.63,1.63,0,0,1,1.62,1.62v3.94h-27.5v-3.94a1.62,1.62,0,0,1,1.61-1.62,3,3,0,0,0,0-6,7.62,7.62,0,0,0-7.61,7.62v24a7.61,7.61,0,0,0,7.61,7.61h24.27a7.62,7.62,0,0,0,7.62-7.61v-24A7.63,7.63,0,0,0,260.17,132.59Zm1.62,31.6a1.62,1.62,0,0,1-1.62,1.61H235.9a1.61,1.61,0,0,1-1.61-1.61v-14h27.5Z"/><circle cx="254.42" cy="160.01" r="3.16"/><path d="M40.42,147.14a3.68,3.68,0,1,0,3.67,3.68A3.67,3.67,0,0,0,40.42,147.14Z"/><path d="M57.77,147.14a3.68,3.68,0,1,0,3.68,3.68A3.68,3.68,0,0,0,57.77,147.14Z"/><path d="M95.85,147.14a3.68,3.68,0,1,0,3.68,3.68A3.68,3.68,0,0,0,95.85,147.14Z"/><path d="M113.21,147.14a3.68,3.68,0,1,0,3.68,3.68A3.68,3.68,0,0,0,113.21,147.14Z"/><path d="M151.29,147.14a3.68,3.68,0,1,0,3.68,3.68A3.68,3.68,0,0,0,151.29,147.14Z"/><path d="M168.65,147.14a3.68,3.68,0,1,0,3.68,3.68A3.68,3.68,0,0,0,168.65,147.14Z"/><path d="M85.54,133.79a3,3,0,0,0-4,1.3L66.78,163.81a3,3,0,1,0,5.34,2.73l14.72-28.71A3,3,0,0,0,85.54,133.79Z"/><path d="M141,133.79a3,3,0,0,0-4,1.3l-14.72,28.72a3,3,0,0,0,1.3,4,3.07,3.07,0,0,0,1.37.33,3,3,0,0,0,2.67-1.64l14.72-28.71A3,3,0,0,0,141,133.79Z"/>
</svg>