<svg version="1.1" id="Calque_1" xmlns="http://www.w3.org/2000/svg" xmlns:xlink="http://www.w3.org/1999/xlink" x="0px" y="0px"
	 viewBox="25.8 103.5 533.7 533.7" enable-background="new 25.8 103.5 533.7 533.7" xml:space="preserve">
<path fill="" stroke="" stroke-width="12" stroke-miterlimit="10" d="M486.4,197.7c-0.6-1.8-2.1-3-4-3.3l-35.5-5.1
	l-15.8-32.1c-1.7-3.3-7.2-3.3-8.8,0l-15.8,32.1l-35.5,5.1c-1.8,0.3-3.4,1.5-3.9,3.3c-0.6,1.8-0.1,3.7,1.2,5l25.6,25l-6,35.3
	c-0.4,1.9,0.5,3.7,2,4.8c1.5,1.1,3.5,1.2,5.1,0.4l31.6-16.7l31.7,16.7c0.7,0.4,1.5,0.6,2.3,0.6c1,0,2.1-0.3,2.9-0.9
	c1.5-1,2.3-2.9,2-4.8l-6-35.3l25.6-25C486.5,201.3,487.1,199.5,486.4,197.7L486.4,197.7z"/>
<path fill="" stroke="" stroke-width="12" stroke-miterlimit="10" d="M465.9,370.3c-0.6-1.8-2.1-3.1-4-3.3l-28.3-4.1
	l-12.7-25.7c-1.6-3.3-7.1-3.3-8.8,0l-12.7,25.7l-28.3,4.1c-1.8,0.3-3.4,1.5-3.9,3.3c-0.6,1.8-0.1,3.7,1.2,5l20.5,20.1l-4.9,28.2
	c-0.3,1.9,0.5,3.7,2,4.8c0.8,0.7,1.9,0.9,2.9,0.9c0.8,0,1.5-0.2,2.3-0.6l25.3-13.4l25.3,13.4c1.7,0.8,3.7,0.7,5.1-0.4
	c1.5-1,2.3-2.9,2-4.8l-4.8-28.2l20.5-20.1C466,374,466.5,372.1,465.9,370.3L465.9,370.3z"/>
<path fill="" stroke="" stroke-width="12" stroke-miterlimit="10" d="M306.7,270.4c-0.6-1.8-2.1-3-4-3.3l-20.7-3
	l-9.3-18.8c-1.6-3.4-7.1-3.4-8.8,0l-9.3,18.8l-20.7,3c-1.9,0.3-3.4,1.5-4,3.3c-0.6,1.8-0.1,3.7,1.3,5l15,14.6l-3.5,20.6
	c-0.4,1.8,0.5,3.7,1.9,4.8c0.8,0.6,1.9,0.9,2.9,0.9c0.8,0,1.5-0.2,2.3-0.6l18.5-9.8l18.5,9.8c1.6,0.8,3.6,0.8,5.1-0.4s2.3-3,2-4.8
	l-3.6-20.6l15.1-14.6C306.8,274,307.3,272.1,306.7,270.4L306.7,270.4z"/>
<path fill="" stroke="" stroke-width="17" stroke-miterlimit="10" d="M298.9,628.7c115.4,0,216.6-73.8,251.9-183.6
	c0.7-2.1-0.1-4.5-2-5.8c-1.9-1.3-4.4-1.2-6.2,0.1c-40.2,31.6-88.6,48.5-140,48.5c-125.4,0-227.4-102-227.4-227.4
	c0-51.5,16.7-99.9,48.4-140.2c1.5-1.8,1.5-4.2,0.2-6.1c-1.3-1.9-3.7-2.7-5.9-2C108,147.5,34.3,248.7,34.3,364.2
	C34.3,510,153,628.7,298.9,628.7L298.9,628.7z"/>
</svg>
