<?xml version="1.0" encoding="utf-8"?>
<!-- Generator: Adobe Illustrator 18.0.0, SVG Export Plug-In . SVG Version: 6.00 Build 0)  -->
<!DOCTYPE svg PUBLIC "-//W3C//DTD SVG 1.1//EN" "http://www.w3.org/Graphics/SVG/1.1/DTD/svg11.dtd">
<svg version="1.1"
	 id="Calque_1" xmlns:svg="http://www.w3.org/2000/svg" xmlns:cc="http://creativecommons.org/ns#" xmlns:dc="http://purl.org/dc/elements/1.1/" xmlns:inkscape="http://www.inkscape.org/namespaces/inkscape" xmlns:sodipodi="http://sodipodi.sourceforge.net/DTD/sodipodi-0.dtd" xmlns:rdf="http://www.w3.org/1999/02/22-rdf-syntax-ns#"
	 xmlns="http://www.w3.org/2000/svg" xmlns:xlink="http://www.w3.org/1999/xlink" x="0px" y="0px" viewBox="41.6 153.1 512 386.8"
	 enable-background="new 41.6 153.1 512 386.8" xml:space="preserve">
<g transform="translate(0,-952.36218)">
	<path d="M346.4,1105.5c-1.6,0.1-3,0.7-4.1,1.9L56.2,1393.6c-0.9,0.9-1.5,2.1-1.7,3.3l-12.8,88.4c-0.6,3.2,1.6,6.3,4.8,6.9
		c0.7,0.1,1.4,0.1,2,0l88.4-12.8c1.3-0.2,2.4-0.8,3.3-1.7l286.3-286.3c2.1-2.3,2-5.9-0.2-8.2l-75.5-75.7c-0.7-0.8-1.6-1.4-2.6-1.7
		C347.7,1105.6,347.1,1105.5,346.4,1105.5L346.4,1105.5z M346.6,1120l67.3,67.3l-280.5,280.5l-78.7,11.3l11.2-78.5L346.6,1120
		L346.6,1120z M202.4,1480.3c-3.3,0-6,2.7-6,6c0,3.3,2.7,6,6,6h345.3c3.3,0,6-2.7,6-6c0-3.3-2.7-6-6-6H202.4L202.4,1480.3z"/>
</g>
</svg>
