<svg version="1.1" id="Calque_1" xmlns="http://www.w3.org/2000/svg" xmlns:xlink="http://www.w3.org/1999/xlink" x="0px" y="0px"
	 viewBox="47.4 126.1 490 495" enable-background="new 47.4 126.1 490 495" xml:space="preserve">
<path fill="" stroke="" stroke-width="17" stroke-miterlimit="10" d="M292.6,269.9c56,0,101.5,45.5,101.5,101.5
	s-45.5,101.5-101.5,101.5s-101.5-45.5-101.5-101.5S236.6,269.9,292.6,269.9z M72.8,376.4c-9.3,0-16.9-2.3-16.9-5c0-2.8,7.6-5,16.9-5
	h67.6c9.3,0,16.9,2.3,16.9,5c0,2.8-7.6,5-16.9,5H72.8z M129.4,219.2c-6.6-6.6-10.3-13.6-8.3-15.5s8.9,1.8,15.5,8.4l47.6,48
	c6.6,6.6,10.3,13.6,8.3,15.5c-2,2-8.9-1.8-15.5-8.4L129.4,219.2z M444.4,376.4c-9.3,0-16.9-2.3-16.9-5c0-2.8,7.6-5,16.9-5H512
	c9.3,0,16.9,2.3,16.9,5c0,2.8-7.6,5-16.9,5H444.4z M405.3,266.3c-6.6,6.6-13.6,10.3-15.5,8.3c-2-2,1.8-8.9,8.4-15.5l48-47.6
	c6.6-6.6,13.6-10.3,15.5-8.3c2,2-1.8,8.9-8.4,15.5L405.3,266.3z M287.5,151.5c0-9.3,2.3-16.9,5-16.9c2.8,0,5,7.6,5,16.9v67.6
	c0,9.3-2.3,16.9-5,16.9c-2.8,0-5-7.6-5-16.9V151.5z M450.2,524.5c6.6,6.6,10.3,13.6,8.4,15.5s-8.9-1.8-15.5-8.4l-47.8-47.8
	c-6.6-6.6-10.3-13.6-8.4-15.5c2-2,8.9,1.8,15.5,8.4L450.2,524.5z M299,595.7c0,9.3-2.3,16.9-5.1,16.9c-2.8,0-5-7.6-5-16.9l0.2-67.6
	c0-9.3,2.3-16.9,5.1-16.9c2.8,0,5,7.6,5,16.9L299,595.7z M139.3,531.7c-6.6,6.6-13.6,10.3-15.5,8.4c-2-2,1.8-8.9,8.4-15.5l47.8-47.8
	c6.6-6.6,13.6-10.3,15.5-8.4s-1.8,8.9-8.4,15.5L139.3,531.7z"/>
</svg>
