<svg version="1.1" id="Calque_1" xmlns="http://www.w3.org/2000/svg" xmlns:xlink="http://www.w3.org/1999/xlink" x="0px" y="0px"
	 viewBox="36.5 169.6 522 353.9" enable-background="new 36.5 169.6 522 353.9" xml:space="preserve">
<title>sunrise</title>
<path d="M288.3,272.1v-55.8c0-5.1,4.2-9.3,9.3-9.3s9.3,4.2,9.3,9.3v55.8c0,5.1-4.2,9.3-9.3,9.3S288.3,277.3,288.3,272.1z
	 M441.4,391.9c1.1,4.1,4.8,6.9,9,6.9c0.8,0,1.6-0.1,2.4-0.3l98.8-26.5c5-1.3,7.9-6.4,6.6-11.4c-1.3-5-6.4-7.9-11.4-6.6L448,380.5
	C443,381.9,440.1,387,441.4,391.9C441.4,391.9,441.4,391.9,441.4,391.9z M372.1,301.6c4.5,2.6,10.1,1,12.7-3.4c0,0,0,0,0,0
	l27.9-48.4c2.5-4.5,1-10.1-3.5-12.7c-4.4-2.5-10-1-12.6,3.4l-27.9,48.4C366.1,293.3,367.6,299,372.1,301.6
	C372,301.6,372,301.6,372.1,301.6z M478.3,315.4l-48.3,27.9c-4.5,2.5-6,8.2-3.5,12.7c2.5,4.5,8.2,6,12.7,3.5c0,0,0.1,0,0.1-0.1
	l48.4-27.9c4.5-2.5,6-8.2,3.5-12.7c-2.5-4.5-8.2-6-12.7-3.5C478.4,315.4,478.3,315.4,478.3,315.4L478.3,315.4z M402.9,325.2
	c3.6,3.6,9.5,3.6,13.2,0l72.3-72.3c3.6-3.7,3.5-9.6-0.2-13.2c-3.6-3.5-9.3-3.5-12.9,0l-72.4,72.4
	C399.3,315.7,399.3,321.6,402.9,325.2L402.9,325.2z M336.2,286.7c0.8,0.2,1.6,0.3,2.4,0.3c4.2,0,7.9-2.8,9-6.9l26.5-98.8
	c1.3-5-1.6-10.1-6.6-11.4c-5-1.3-10.1,1.6-11.4,6.6l-26.5,98.8C328.2,280.3,331.2,285.4,336.2,286.7
	C336.2,286.7,336.2,286.7,336.2,286.7L336.2,286.7z M107.7,331.6l48.4,27.9c4.4,2.6,10.1,1.1,12.7-3.3c2.6-4.4,1.1-10.1-3.3-12.7
	c0,0-0.1,0-0.1-0.1l-48.3-27.9c-4.4-2.6-10.1-1.1-12.7,3.3C101.7,323.2,103.2,328.9,107.7,331.6
	C107.7,331.5,107.7,331.5,107.7,331.6L107.7,331.6z M43.7,372l98.8,26.5c0.8,0.2,1.6,0.3,2.4,0.3c5.1,0,9.3-4.1,9.3-9.3
	c0-4.2-2.8-7.9-6.9-9l-98.8-26.5c-4.9-1.5-10.1,1.3-11.6,6.2s1.3,10.1,6.2,11.6C43.3,371.9,43.5,372,43.7,372z M556.4,508.9
	c2.9,4.2,1.9,10-2.3,13s-10,1.9-13-2.3c0,0,0-0.1-0.1-0.1c-20.6-29.8-61.4-79.7-104-79.7c-8.1,0-16.1,1.1-24,3.1h-0.1
	c-3.7,0.9-7.3,2.1-11,3.3c-1,0.4-2,0.8-3,1.1c-2.5,0.9-5,2-7.6,3c-1.2,0.5-2.4,1.1-3.7,1.6c-2.5,1.2-5.1,2.4-7.6,3.6
	c-0.9,0.5-1.9,0.9-2.8,1.4c-3.2,1.6-6.4,3.4-9.6,5.2c-1.7,0.9-3.3,1.9-5,2.9l-5.2,3c-1.9,1.1-3.9,2.3-5.8,3.4l-1.2,0.7l-7.6,4.6
	c-8,4.8-16.3,9.7-24.7,14.4c19.9,8.7,41.3,13.4,63,13.6c5.1,0,9.3,4.2,9.3,9.3c0,5.1-4.2,9.3-9.3,9.3c-29.1-0.5-57.7-7.8-83.6-21.2
	l-0.1,0.1l-4.2-2.1c-0.6-0.3-1.1-0.6-1.7-0.9c-6.5-3.3-12.9-6.8-19.1-10.4l-1.5-0.9c-6.1-3.5-12-7.1-17.9-10.6l-1.1-0.7
	c-5-3-9.9-5.9-14.7-8.8c-1.7-1-3.4-2-5.1-2.9c-1.7-1-3.4-1.9-5.1-2.9c-3.2-1.8-6.4-3.5-9.6-5.2c-0.9-0.5-1.9-0.9-2.7-1.3
	c-2.6-1.3-5.1-2.5-7.7-3.7c-1.2-0.5-2.4-1.1-3.6-1.6c-2.5-1.1-5.1-2.1-7.6-3.1c-1-0.4-1.9-0.8-2.9-1.1c-3.6-1.3-7.3-2.4-11-3.4h-0.1
	c-7.8-2-15.9-3-24-3c-42.6,0-83.4,49.9-104,79.7c-2.9,4.2-8.7,5.2-13,2.3c-4.2-2.9-5.2-8.6-2.4-12.9c27.6-40,70.8-87.7,119.3-87.7
	c6.4,0.1,12.7,0.7,19,1.8c4.1-66.6,61.3-117.2,127.9-113.2c60.9,3.7,109.5,52.3,113.2,113.2c6.3-1.1,12.6-1.7,19-1.8
	C485.7,421.2,528.8,468.9,556.4,508.9z M196,427.6c11,3.7,21.6,8.3,31.8,13.7l3.1,1.6c4.4,2.4,8.7,4.8,13.1,7.3l2.6,1.5
	c5.1,3,10.1,6,15.2,9.1l2.4,1.4c4.2,2.6,8.5,5.1,12.9,7.7c1.7,0.9,3.4,1.9,5.1,2.9c4,2.3,8.1,4.6,12.2,6.8c1.1,0.6,2.3,1.2,3.4,1.8
	c4-2.1,8-4.3,11.9-6.5c1.9-1,3.7-2,5.5-3.1c6.3-3.6,12.5-7.3,18.5-11c5.1-3.1,10.3-6.1,15.3-9.1l2.4-1.4c4.4-2.5,8.8-5,13.2-7.4
	l3-1.6c10.2-5.5,20.8-10.1,31.8-13.7l0.7-0.2c-1.7-56.5-48.9-100.9-105.4-99.2c-54.1,1.6-97.6,45.1-99.2,99.2
	C195.6,427.5,195.8,427.5,196,427.6z M210.5,298.2c2.5,4.5,8.2,6,12.7,3.5c4.5-2.5,6-8.2,3.5-12.7c0,0,0-0.1-0.1-0.1l-27.9-48.4
	c-2.6-4.4-8.3-5.9-12.7-3.3c-4.4,2.6-5.9,8.2-3.4,12.6L210.5,298.2z M179.3,325.2c3.4,3.9,9.3,4.2,13.1,0.8s4.2-9.3,0.8-13.1
	c-0.3-0.3-0.5-0.6-0.8-0.8l-72.3-72.3c-3.7-3.6-9.6-3.5-13.2,0.2c-3.5,3.6-3.5,9.3,0,12.9L179.3,325.2z M247.7,280.1
	c1.1,4.1,4.8,6.9,9,6.9c0.8,0,1.6-0.1,2.4-0.3c5-1.3,7.9-6.4,6.6-11.4c0,0,0,0,0,0l-26.5-98.8c-1.3-5-6.4-7.9-11.4-6.6
	c-5,1.3-7.9,6.4-6.6,11.4l0,0L247.7,280.1z"/>
</svg>
