<?xml version="1.0" encoding="utf-8"?>
<!-- Generator: Adobe Illustrator 18.0.0, SVG Export Plug-In . SVG Version: 6.00 Build 0)  -->
<!DOCTYPE svg PUBLIC "-//W3C//DTD SVG 1.1//EN" "http://www.w3.org/Graphics/SVG/1.1/DTD/svg11.dtd">
<svg version="1.1" id="Calque_1" xmlns="http://www.w3.org/2000/svg" xmlns:xlink="http://www.w3.org/1999/xlink" x="0px" y="0px"
	 viewBox="81.8 126.8 421.7 487" enable-background="new 81.8 126.8 421.7 487" xml:space="preserve">
<path d="M136.7,239.5h312c9,0,16.2,7.3,16.2,16.2v295.6c0,34.4-28.1,62.5-62.5,62.5H182.9c-34.4,0-62.5-28.1-62.5-62.5V255.8
	C120.4,246.8,127.7,239.5,136.7,239.5L136.7,239.5z M97.8,215.5c-21.4,0-21.4-32.5,0-32.5h127.5v-32.6c0-6.5,2.6-12.4,6.9-16.7l0,0
	c4.3-4.3,10.2-7,16.7-7h87.4c13,0,23.7,10.7,23.7,23.7V183h127.5c21.4,0,21.4,32.5,0,32.5L97.8,215.5z M257.8,183h69.8v-23.7h-69.8
	V183z M432.4,272H152.9v279.4c0,16.5,13.5,30,30,30h219.5c16.5,0,30-13.5,30-30V272z"/>
</svg>
